<svg width="10" height="10" viewBox="0 0 10 10" fill="none" xmlns="http://www.w3.org/2000/svg">
<path d="M9.16667 4.16665H5.83333V0.833318C5.83333 0.612304 5.74554 0.400343 5.58926 0.244063C5.43297 0.0877823 5.22101 -1.52588e-05 5 -1.52588e-05C4.77899 -1.52588e-05 4.56702 0.0877823 4.41074 0.244063C4.25446 0.400343 4.16667 0.612304 4.16667 0.833318V4.16665H0.833333C0.61232 4.16665 0.400358 4.25445 0.244078 4.41073C0.0877975 4.56701 0 4.77897 0 4.99998C0 5.221 0.0877975 5.43296 0.244078 5.58924C0.400358 5.74552 0.61232 5.83332 0.833333 5.83332H4.16667V9.16665C4.16667 9.38766 4.25446 9.59963 4.41074 9.75591C4.56702 9.91219 4.77899 9.99998 5 9.99998C5.22101 9.99998 5.43297 9.91219 5.58926 9.75591C5.74554 9.59963 5.83333 9.38766 5.83333 9.16665V5.83332H9.16667C9.38768 5.83332 9.59964 5.74552 9.75592 5.58924C9.9122 5.43296 10 5.221 10 4.99998C10 4.77897 9.9122 4.56701 9.75592 4.41073C9.59964 4.25445 9.38768 4.16665 9.16667 4.16665Z" fill="#F5F5F5"/>
</svg>
