<svg width="15" height="8" viewBox="0 0 15 8" fill="none" xmlns="http://www.w3.org/2000/svg">
<path d="M13.9304 0.867946C13.8413 0.778123 13.7353 0.706828 13.6185 0.658175C13.5018 0.609522 13.3765 0.584473 13.25 0.584473C13.1235 0.584473 12.9982 0.609522 12.8814 0.658175C12.7647 0.706828 12.6587 0.778123 12.5696 0.867946L8.1804 5.25711C8.09131 5.34694 7.98532 5.41823 7.86854 5.46688C7.75176 5.51554 7.6265 5.54059 7.49999 5.54059C7.37348 5.54059 7.24822 5.51554 7.13143 5.46688C7.01465 5.41823 6.90866 5.34694 6.81957 5.25711L2.4304 0.867946C2.34131 0.778123 2.23532 0.706828 2.11854 0.658175C2.00176 0.609522 1.8765 0.584473 1.74999 0.584473C1.62348 0.584473 1.49822 0.609522 1.38143 0.658175C1.26465 0.706828 1.15866 0.778123 1.06957 0.867946C0.891079 1.0475 0.790894 1.29039 0.790894 1.54357C0.790894 1.79675 0.891079 2.03964 1.06957 2.2192L5.46832 6.61795C6.00738 7.15634 6.73811 7.45875 7.49999 7.45875C8.26186 7.45875 8.99259 7.15634 9.53165 6.61795L13.9304 2.2192C14.1089 2.03964 14.2091 1.79675 14.2091 1.54357C14.2091 1.29039 14.1089 1.0475 13.9304 0.867946Z" fill="#2B2C28"/>
</svg>
