<svg width="11" height="11" viewBox="0 0 11 11" fill="none" xmlns="http://www.w3.org/2000/svg">
<path d="M10.75 0.250024C10.5859 0.0859865 10.3634 -0.00616455 10.1313 -0.00616455C9.89932 -0.00616455 9.6768 0.0859865 9.51271 0.250024L5.49996 4.26277L1.48721 0.250024C1.32313 0.0859865 1.10061 -0.00616455 0.868588 -0.00616455C0.636569 -0.00616455 0.414049 0.0859865 0.249963 0.250024C0.0859255 0.41411 -0.00622559 0.63663 -0.00622559 0.868649C-0.00622559 1.10067 0.0859255 1.32319 0.249963 1.48727L4.26271 5.50002L0.249963 9.51277C0.0859255 9.67686 -0.00622559 9.89938 -0.00622559 10.1314C-0.00622559 10.3634 0.0859255 10.5859 0.249963 10.75C0.414049 10.9141 0.636569 11.0062 0.868588 11.0062C1.10061 11.0062 1.32313 10.9141 1.48721 10.75L5.49996 6.73727L9.51271 10.75C9.6768 10.9141 9.89932 11.0062 10.1313 11.0062C10.3634 11.0062 10.5859 10.9141 10.75 10.75C10.914 10.5859 11.0062 10.3634 11.0062 10.1314C11.0062 9.89938 10.914 9.67686 10.75 9.51277L6.73721 5.50002L10.75 1.48727C10.914 1.32319 11.0062 1.10067 11.0062 0.868649C11.0062 0.63663 10.914 0.41411 10.75 0.250024Z" fill="#2B2C28"/>
</svg>
