<svg width="17" height="17" viewBox="0 0 17 17" fill="none" xmlns="http://www.w3.org/2000/svg">
<g clip-path="url(#clip0_31_294)">
<path d="M0.830167 13.5426C0.298777 14.0739 0.000160473 14.7944 0 15.5458L0 17H1.45421C2.20559 16.9998 2.92615 16.7012 3.45738 16.1698L12.9087 6.71854L10.2815 4.09133L0.830167 13.5426Z" fill="#2B2C28"/>
<path d="M16.3943 0.605627C16.2218 0.43296 16.017 0.295983 15.7915 0.202526C15.5661 0.10907 15.3244 0.0609665 15.0803 0.0609665C14.8363 0.0609665 14.5946 0.10907 14.3691 0.202526C14.1437 0.295983 13.9389 0.43296 13.7664 0.605627L11.283 3.08975L13.9102 5.71696L16.3943 3.23354C16.567 3.06106 16.7039 2.85623 16.7974 2.63077C16.8908 2.40531 16.939 2.16365 16.939 1.91959C16.939 1.67553 16.8908 1.43386 16.7974 1.2084C16.7039 0.982941 16.567 0.778114 16.3943 0.605627Z" fill="#2B2C28"/>
</g>
<defs>
<clipPath id="clip0_31_294">
<rect width="17" height="17" fill="white"/>
</clipPath>
</defs>
</svg>
