<svg width="14" height="14" viewBox="0 0 14 14" fill="none" xmlns="http://www.w3.org/2000/svg">
<path d="M13.5723 5.4878C13.0459 4.62578 12.3819 3.85579 11.6066 3.20839L13.2393 1.57568C13.4631 1.34402 13.4566 0.974883 13.225 0.751158C12.999 0.532899 12.6408 0.532899 12.4148 0.751158L10.6392 2.52907C9.53851 1.87531 8.28016 1.53454 6.99999 1.54361C3.3899 1.54361 1.33266 4.01487 0.427675 5.48783C-0.142558 6.41014 -0.142558 7.57554 0.427675 8.49788C0.954093 9.3599 1.61811 10.1299 2.39337 10.7773L0.760653 12.41C0.529001 12.6337 0.522578 13.0029 0.746303 13.2345C0.970029 13.4662 1.3392 13.4726 1.57082 13.2489C1.57569 13.2442 1.58047 13.2394 1.58517 13.2345L3.36484 11.4549C4.46417 12.1085 5.72102 12.4499 6.99999 12.4421C10.6101 12.4421 12.6673 9.97081 13.5723 8.49786C14.1426 7.57554 14.1426 6.41014 13.5723 5.4878ZM3.50131 6.99284C3.498 5.06377 5.05911 3.49728 6.98818 3.49398C7.71807 3.49272 8.43003 3.72016 9.02401 4.14432L8.17733 4.99101C7.82188 4.77666 7.41507 4.66241 7.00001 4.66038C5.71184 4.66038 4.66756 5.70466 4.66756 6.99284C4.66958 7.4079 4.78383 7.81471 4.99818 8.17015L4.1515 9.01684C3.7287 8.42663 3.50134 7.71885 3.50131 6.99284ZM7.00001 10.4915C6.27401 10.4915 5.56623 10.2642 4.97602 9.84136L5.8227 8.99467C6.17815 9.20902 6.58495 9.32328 7.00001 9.3253C8.28819 9.3253 9.33247 8.28102 9.33247 6.99284C9.33045 6.57778 9.2162 6.17097 9.00185 5.81553L9.84853 4.96884C10.9696 6.53872 10.6057 8.72016 9.03585 9.84119C8.44186 10.2654 7.7299 10.4928 7.00001 10.4915Z" fill="#2B2C28"/>
</svg>
