<svg width="14" height="12" viewBox="0 0 14 12" fill="none" xmlns="http://www.w3.org/2000/svg">
<path d="M6.99994 8.33246C8.28812 8.33246 9.3324 7.28818 9.3324 6C9.3324 4.71182 8.28812 3.66754 6.99994 3.66754C5.71176 3.66754 4.66748 4.71182 4.66748 6C4.66748 7.28818 5.71176 8.33246 6.99994 8.33246Z" fill="#2B2C28"/>
<path d="M13.5723 4.49499C12.6679 3.02204 10.6106 0.550781 6.99999 0.550781C3.38933 0.550781 1.33209 3.02204 0.427675 4.49499C-0.142558 5.41731 -0.142558 6.58271 0.427675 7.50505C1.33209 8.97801 3.38933 11.4493 6.99999 11.4493C10.6106 11.4493 12.6679 8.97801 13.5723 7.50505C14.1425 6.58271 14.1425 5.41731 13.5723 4.49499ZM6.99999 9.49871C5.06772 9.49871 3.50128 7.93228 3.50128 6.00001C3.50128 4.06774 5.06772 2.50131 6.99999 2.50131C8.93225 2.50131 10.4987 4.06774 10.4987 6.00001C10.4967 7.93148 8.93146 9.49677 6.99999 9.49871Z" fill="#2B2C28"/>
</svg>
