<svg width="29" height="29" viewBox="0 0 29 29" fill="none" xmlns="http://www.w3.org/2000/svg">
<g clip-path="url(#clip0_8_354)">
<path d="M21.4129 3.625L19.7055 1.41133C19.3654 0.973683 18.9301 0.61917 18.4327 0.374649C17.9353 0.130127 17.3888 0.00200951 16.8345 0L12.1655 0C11.6112 0.00200951 11.0647 0.130127 10.5673 0.374649C10.0699 0.61917 9.63461 0.973683 9.2945 1.41133L7.58713 3.625H21.4129Z" fill="#2B2C28"/>
<path d="M14.5 21.75C17.1694 21.75 19.3333 19.586 19.3333 16.9167C19.3333 14.2473 17.1694 12.0833 14.5 12.0833C11.8306 12.0833 9.66666 14.2473 9.66666 16.9167C9.66666 19.586 11.8306 21.75 14.5 21.75Z" fill="#2B2C28"/>
<path d="M22.9583 6.04167H6.04167C4.43991 6.04359 2.9043 6.68074 1.77168 7.81335C0.639066 8.94597 0.00191866 10.4816 0 12.0833L0 22.9583C0.00191866 24.5601 0.639066 26.0957 1.77168 27.2283C2.9043 28.3609 4.43991 28.9981 6.04167 29H22.9583C24.5601 28.9981 26.0957 28.3609 27.2283 27.2283C28.3609 26.0957 28.9981 24.5601 29 22.9583V12.0833C28.9981 10.4816 28.3609 8.94597 27.2283 7.81335C26.0957 6.68074 24.5601 6.04359 22.9583 6.04167ZM14.5 24.1667C13.0661 24.1667 11.6644 23.7415 10.4721 22.9448C9.27986 22.1482 8.35061 21.0159 7.80187 19.6911C7.25314 18.3664 7.10956 16.9086 7.38931 15.5023C7.66905 14.0959 8.35955 12.8041 9.37348 11.7901C10.3874 10.7762 11.6792 10.0857 13.0856 9.80598C14.492 9.52624 15.9497 9.66981 17.2745 10.2185C18.5992 10.7673 19.7315 11.6965 20.5282 12.8888C21.3248 14.081 21.75 15.4828 21.75 16.9167C21.7481 18.8389 20.9836 20.6819 19.6244 22.0411C18.2652 23.4003 16.4222 24.1648 14.5 24.1667Z" fill="#2B2C28"/>
</g>
<defs>
<clipPath id="clip0_8_354">
<rect width="29" height="29" fill="white"/>
</clipPath>
</defs>
</svg>
