<svg width="29" height="29" viewBox="0 0 29 29" fill="none" xmlns="http://www.w3.org/2000/svg">
<path d="M14.5 9.66667C10.5016 9.66667 7.25 12.9183 7.25 16.9167C7.25 20.915 10.5016 24.1667 14.5 24.1667C18.4984 24.1667 21.75 20.915 21.75 16.9167C21.75 12.9183 18.4984 9.66667 14.5 9.66667ZM14.5 22.9583C11.1686 22.9583 8.45833 20.248 8.45833 16.9167C8.45833 13.5853 11.1686 10.875 14.5 10.875C17.8314 10.875 20.5417 13.5853 20.5417 16.9167C20.5417 20.248 17.8314 22.9583 14.5 22.9583ZM23.5625 4.83333H22.0521L19.3333 1.20833C18.7654 0.451917 17.8616 0 16.9167 0H12.0833C11.1384 0 10.2346 0.451917 9.66667 1.20833L6.94792 4.83333H5.4375C2.43963 4.83333 0 7.27296 0 10.2708V23.5625C0 26.5604 2.43963 29 5.4375 29H23.5625C26.5604 29 29 26.5604 29 23.5625V10.2708C29 7.27296 26.5604 4.83333 23.5625 4.83333ZM10.6333 1.93333C10.9741 1.479 11.5154 1.20833 12.0833 1.20833H16.9167C17.4846 1.20833 18.0259 1.479 18.3667 1.93333L20.5417 4.83333H8.45833L10.6333 1.93333ZM27.7917 23.5625C27.7917 25.8946 25.8946 27.7917 23.5625 27.7917H5.4375C3.10542 27.7917 1.20833 25.8946 1.20833 23.5625V10.2708C1.20833 7.93875 3.10542 6.04167 5.4375 6.04167H23.5625C25.8946 6.04167 27.7917 7.93875 27.7917 10.2708V23.5625Z" fill="#2B2C28"/>
</svg>
