<svg width="29" height="29" viewBox="0 0 29 29" fill="none" xmlns="http://www.w3.org/2000/svg">
<path d="M26.6039 7.04579L25.375 6.21688V1.8125C25.375 1.479 25.1043 1.20833 24.7708 1.20833C24.4373 1.20833 24.1667 1.479 24.1667 1.8125V5.40125L17.5414 0.930418C15.6938 -0.316582 13.305 -0.315374 11.4598 0.930418L2.39613 7.04579C0.895375 8.05717 0 9.74279 0 11.5529V23.5625C0 26.5604 2.43963 29 5.4375 29H9.0625C9.396 29 9.66667 28.7293 9.66667 28.3958V17.5208C9.66667 16.5215 10.4799 15.7083 11.4792 15.7083H17.5208C18.5201 15.7083 19.3333 16.5215 19.3333 17.5208V28.3958C19.3333 28.7293 19.604 29 19.9375 29H23.5625C26.5604 29 29 26.5604 29 23.5625V11.5529C29 9.74158 28.1046 8.05717 26.6039 7.04579ZM27.7917 23.5625C27.7917 25.8946 25.8946 27.7917 23.5625 27.7917H20.5417V17.5208C20.5417 15.8558 19.1871 14.5 17.5208 14.5H11.4792C9.81288 14.5 8.45833 15.8558 8.45833 17.5208V27.7917H5.4375C3.10542 27.7917 1.20833 25.8946 1.20833 23.5625V11.5529C1.20833 10.144 1.90433 8.83413 3.07158 8.0475L12.1341 1.93213C13.5708 0.961834 15.4292 0.961834 16.8659 1.93213L25.9284 8.0475C27.0957 8.83413 27.7917 10.1452 27.7917 11.5529V23.5625Z" fill="#2B2C28"/>
</svg>
