<svg width="29" height="29" viewBox="0 0 29 29" fill="none" xmlns="http://www.w3.org/2000/svg">
<path d="M26.5833 6.91669V2.41686C26.5833 1.74986 26.0432 1.20852 25.375 1.20852C24.7068 1.20852 24.1667 1.74986 24.1667 2.41686V5.27577L17.8797 1.03331C15.8268 -0.351436 13.1733 -0.351436 11.1203 1.03331L2.66196 6.74148C0.995667 7.86644 0 9.73815 0 11.75V22.9585C0 26.2899 2.71029 29.0002 6.04167 29.0002H8.45833C9.12654 29.0002 9.66667 28.4589 9.66667 27.7919V16.9169C9.66667 16.2511 10.208 15.7085 10.875 15.7085H18.125C18.792 15.7085 19.3333 16.2511 19.3333 16.9169V27.7919C19.3333 28.4589 19.8735 29.0002 20.5417 29.0002H22.9583C26.2897 29.0002 29 26.2899 29 22.9585V11.75C29 9.83965 28.101 8.05494 26.5833 6.91669Z" fill="#2B2C28"/>
</svg>
