<svg width="29" height="29" viewBox="0 0 29 29" fill="none" xmlns="http://www.w3.org/2000/svg">
<path d="M29 14.5001C29 22.4993 22.4992 29.0001 14.5 29.0001C6.50083 29.0001 0 22.4993 0 14.5001C0 6.50092 6.50083 9.02864e-05 14.5 9.02864e-05C14.7296 9.02864e-05 14.9592 9.02861e-05 15.1888 0.0121736C16.1917 0.060507 16.965 0.90634 16.9167 1.90926C16.8683 2.91217 16.0467 3.66134 15.0196 3.63717C14.8504 3.63717 14.6692 3.62509 14.5 3.62509C8.50667 3.62509 3.625 8.50676 3.625 14.5001C3.625 20.4934 8.50667 25.3751 14.5 25.3751C20.4933 25.3751 25.375 20.4934 25.375 14.5001C25.375 14.3309 25.375 14.1497 25.3629 13.9805C25.3146 12.9776 26.0879 12.1318 27.0908 12.0834C28.1179 12.0472 28.9396 12.8084 28.9879 13.8113C28.9879 14.0409 29 14.2705 29 14.5001ZM13.1829 9.84801C14.1496 9.57009 14.7054 8.57926 14.4396 7.61259C14.1737 6.64592 13.1588 6.09009 12.2042 6.35592C8.57917 7.38301 6.05375 10.7301 6.05375 14.5001C6.05375 19.1643 9.84792 22.9584 14.5121 22.9584C18.2821 22.9584 21.6292 20.433 22.6562 16.808C22.9342 15.8413 22.3662 14.8384 21.3996 14.5726C20.4329 14.2947 19.43 14.8626 19.1642 15.8293C18.5842 17.8955 16.6629 19.3455 14.5121 19.3455C11.8417 19.3455 9.67875 17.1826 9.67875 14.5122C9.67875 12.3613 11.1288 10.4401 13.195 9.86009L13.1829 9.84801ZM13.2192 13.2193C12.5063 13.9322 12.5063 15.0801 13.2192 15.7809C13.5696 16.1313 14.0408 16.3126 14.5 16.3126C14.9592 16.3126 15.4304 16.1313 15.7808 15.7809L21.895 9.66676H24.7708C25.2542 9.66676 25.7133 9.47342 26.0517 9.13509L28.4683 6.71842C28.9879 6.19884 29.145 5.42551 28.8671 4.74884C28.5892 4.07217 27.9246 3.62509 27.1875 3.62509H25.375V1.81259C25.375 1.07551 24.9279 0.423007 24.2513 0.133007C23.5746 -0.14491 22.7892 0.0121736 22.2817 0.531757L19.865 2.94842C19.5267 3.28676 19.3333 3.74592 19.3333 4.22926V7.10509L13.2192 13.2193Z" fill="#2B2C28"/>
</svg>
