<svg width="29" height="29" viewBox="0 0 29 29" fill="none" xmlns="http://www.w3.org/2000/svg">
<path d="M28.6617 11.3463C28.8913 12.3733 29 13.4367 29 14.5C29 22.4992 22.4992 29 14.5 29C6.50083 29 0 22.4992 0 14.5C0 6.50083 6.50083 0 14.5 0C15.5633 0 16.6267 0.120833 17.6537 0.338333C17.98 0.410833 18.1854 0.737083 18.1129 1.06333C18.0404 1.38958 17.7142 1.595 17.3879 1.5225C16.4454 1.31708 15.4667 1.20833 14.5 1.20833C7.16542 1.20833 1.20833 7.16542 1.20833 14.5C1.20833 21.8346 7.16542 27.7917 14.5 27.7917C21.8346 27.7917 27.7917 21.8346 27.7917 14.5C27.7917 13.5213 27.6829 12.5546 27.4775 11.6121C27.405 11.2858 27.6104 10.9596 27.9367 10.8871C28.2629 10.8146 28.5892 11.02 28.6617 11.3463ZM16.1917 6.21083C16.5179 6.27125 16.8321 6.06583 16.9046 5.73958C16.965 5.41333 16.7596 5.09917 16.4333 5.02667C15.805 4.89375 15.1525 4.83333 14.5 4.83333C9.17125 4.83333 4.83333 9.17125 4.83333 14.5C4.83333 19.8288 9.17125 24.1667 14.5 24.1667C19.8288 24.1667 24.1667 19.8288 24.1667 14.5C24.1667 13.8475 24.1063 13.195 23.9733 12.5667C23.9129 12.2404 23.5867 12.035 23.2604 12.0954C22.9342 12.1679 22.7167 12.4821 22.7892 12.8083C22.8979 13.3642 22.9583 13.9321 22.9583 14.5C22.9583 19.1642 19.1642 22.9583 14.5 22.9583C9.83583 22.9583 6.04167 19.1642 6.04167 14.5C6.04167 9.83583 9.83583 6.04167 14.5 6.04167C15.0679 6.04167 15.6358 6.10208 16.1917 6.21083ZM13.9804 10.9113C14.3067 10.8629 14.5363 10.5608 14.4879 10.2225C14.4396 9.88417 14.1375 9.65458 13.7992 9.715C11.4308 10.0533 9.65458 12.1075 9.65458 14.5C9.65458 17.1704 11.8175 19.3333 14.4879 19.3333C16.8804 19.3333 18.9346 17.5571 19.2729 15.1888C19.3213 14.8625 19.0917 14.5483 18.7654 14.5C18.4392 14.4517 18.125 14.6813 18.0767 15.0075C17.8229 16.7838 16.2763 18.1129 14.4879 18.1129C12.4942 18.1129 10.8629 16.4817 10.8629 14.4879C10.8629 12.6996 12.1921 11.1529 13.9683 10.8992L13.9804 10.9113ZM19.3333 8.80875V5.23208C19.3333 4.4225 19.6475 3.66125 20.2154 3.09333L23.1396 0.18125C23.3088 0.0120833 23.5746 -0.0483333 23.7921 0.0483333C24.0217 0.145 24.1667 0.3625 24.1667 0.604167V4.83333H28.3958C28.6375 4.83333 28.855 4.97833 28.9517 5.20792C29.0483 5.4375 28.9879 5.69125 28.8188 5.86042L25.9067 8.7725C25.3388 9.34042 24.5775 9.65458 23.7679 9.65458H20.1912L14.935 14.9108C14.8142 15.0317 14.6571 15.0921 14.5121 15.0921C14.3671 15.0921 14.1979 15.0317 14.0892 14.9108C13.8475 14.6692 13.8475 14.2946 14.0892 14.0529L19.3454 8.79667L19.3333 8.80875ZM20.5417 8.45833H23.7679C24.2513 8.45833 24.7104 8.265 25.0487 7.92667L26.9338 6.04167H23.5625C23.2242 6.04167 22.9583 5.77583 22.9583 5.4375V2.06625L21.0733 3.95125C20.735 4.28958 20.5417 4.74875 20.5417 5.23208V8.45833Z" fill="#2B2C28"/>
</svg>
