<svg width="29" height="29" viewBox="0 0 29 29" fill="none" xmlns="http://www.w3.org/2000/svg">
<path d="M14.5 0C6.50446 0 0 6.50446 0 14.5C0 22.4955 6.50446 29 14.5 29C22.4955 29 29 22.4955 29 14.5C29 6.50446 22.4955 0 14.5 0ZM8.45833 26.338V25.375C8.45833 22.0436 11.1686 19.3333 14.5 19.3333C17.8314 19.3333 20.5417 22.0436 20.5417 25.375V26.338C18.728 27.2673 16.6738 27.7917 14.5 27.7917C12.3262 27.7917 10.272 27.2673 8.45833 26.338ZM21.75 25.6348V25.375C21.75 21.3766 18.4984 18.125 14.5 18.125C10.5016 18.125 7.25 21.3766 7.25 25.375V25.6348C3.61533 23.2604 1.20833 19.1557 1.20833 14.5C1.20833 7.17146 7.17146 1.20833 14.5 1.20833C21.8285 1.20833 27.7917 7.17146 27.7917 14.5C27.7917 19.1557 25.3847 23.2604 21.75 25.6348ZM14.5 6.04167C11.8344 6.04167 9.66667 8.20942 9.66667 10.875C9.66667 13.5406 11.8344 15.7083 14.5 15.7083C17.1656 15.7083 19.3333 13.5406 19.3333 10.875C19.3333 8.20942 17.1656 6.04167 14.5 6.04167ZM14.5 14.5C12.5014 14.5 10.875 12.8736 10.875 10.875C10.875 8.87642 12.5014 7.25 14.5 7.25C16.4986 7.25 18.125 8.87642 18.125 10.875C18.125 12.8736 16.4986 14.5 14.5 14.5Z" fill="#2B2C28"/>
</svg>
